<?xml version="1.0" standalone="no"?>
<!DOCTYPE svg PUBLIC "-//W3C//DTD SVG 20010904//EN"
 "http://www.w3.org/TR/2001/REC-SVG-20010904/DTD/svg10.dtd">
<svg version="1.0" xmlns="http://www.w3.org/2000/svg"
 width="262.000000pt" height="141.000000pt" viewBox="0 0 262.000000 141.000000"
 preserveAspectRatio="xMidYMid meet">

<g transform="translate(0.000000,141.000000) scale(0.100000,-0.100000)"
fill="#000000" stroke="none">
<path d="M108 910 c18 -8 22 -17 22 -55 0 -25 5 -45 10 -45 6 0 10 22 10 49 0
39 4 51 18 54 9 3 -5 5 -33 5 -39 1 -45 -1 -27 -8z"/>
<path d="M307 868 c-13 -29 -19 -55 -14 -57 5 -2 14 4 19 13 12 21 54 21 67
-1 5 -10 12 -15 15 -12 9 9 -37 109 -50 109 -7 0 -23 -24 -37 -52z m52 -10 c1
-5 -8 -8 -19 -8 -17 0 -18 3 -8 26 11 23 13 24 19 7 4 -10 8 -21 8 -25z"/>
<path d="M510 865 c0 -30 5 -55 10 -55 6 0 10 17 10 38 l1 37 33 -37 c18 -21
36 -38 40 -38 3 0 6 25 6 55 0 30 -4 55 -10 55 -5 0 -10 -16 -10 -37 l0 -36
-27 36 c-40 52 -53 48 -53 -18z"/>
<path d="M740 865 c0 -30 5 -55 10 -55 6 0 10 25 10 55 0 30 -4 55 -10 55 -5
0 -10 -25 -10 -55z"/>
<path d="M897 868 c-13 -29 -19 -55 -14 -57 5 -2 14 4 19 13 12 21 54 21 67
-1 5 -10 12 -15 15 -12 9 9 -37 109 -50 109 -7 0 -23 -24 -37 -52z m52 -10 c1
-5 -8 -8 -19 -8 -17 0 -18 3 -8 26 11 23 13 24 19 7 4 -10 8 -21 8 -25z"/>
<path d="M1250 865 c0 -30 5 -55 10 -55 6 0 10 25 10 55 0 30 -4 55 -10 55 -5
0 -10 -25 -10 -55z"/>
<path d="M1400 865 c0 -30 5 -55 10 -55 6 0 10 16 10 37 l0 36 28 -36 c39 -52
52 -48 52 18 0 42 -3 55 -15 55 -10 0 -15 -10 -15 -32 l-1 -33 -28 33 c-15 17
-31 32 -34 32 -4 0 -7 -25 -7 -55z"/>
<path d="M1620 865 c0 -30 5 -55 10 -55 6 0 10 9 10 20 0 16 7 20 30 20 17 0
30 5 30 10 0 6 -14 10 -31 10 -41 0 -36 32 6 41 27 6 26 7 -12 8 l-43 1 0 -55z"/>
<path d="M1831 869 c-21 -48 -21 -84 0 -46 6 9 21 17 34 17 13 0 28 -8 34 -17
5 -10 12 -15 16 -11 10 9 -36 108 -50 108 -7 0 -22 -23 -34 -51z m49 -6 c0 -7
-7 -13 -15 -13 -16 0 -19 9 -9 35 5 13 8 14 15 3 5 -7 9 -19 9 -25z"/>
<path d="M2040 865 c0 -30 5 -55 10 -55 6 0 10 17 10 37 l0 38 31 -38 c17 -20
35 -37 40 -37 5 0 9 25 9 55 0 30 -4 55 -10 55 -5 0 -10 -17 -10 -37 l-1 -38
-30 38 c-17 20 -35 37 -40 37 -5 0 -9 -25 -9 -55z"/>
<path d="M2268 910 c18 -8 22 -17 22 -55 0 -25 5 -45 10 -45 6 0 10 22 10 49
0 43 3 50 23 54 12 2 -3 5 -33 5 -42 1 -50 -1 -32 -8z"/>
<path d="M2460 865 l0 -55 40 0 c22 0 40 5 40 10 0 6 -13 10 -30 10 -20 0 -30
5 -30 15 0 9 9 15 25 15 14 0 25 5 25 10 0 6 -11 10 -25 10 -38 0 -32 28 8 33
28 3 26 4 -10 5 l-43 2 0 -55z"/>
<path d="M740 646 l0 -56 39 0 c42 0 68 21 54 42 -4 7 -8 24 -8 38 0 22 -5 25
-42 28 l-43 3 0 -55z m68 27 c2 -8 -6 -13 -22 -13 -17 0 -26 5 -26 16 0 19 41
16 48 -3z m3 -48 c0 -5 -12 -11 -26 -13 -18 -2 -25 1 -25 13 0 12 7 15 25 13
14 -2 26 -7 26 -13z"/>
<path d="M966 684 c-35 -35 -6 -94 46 -94 14 0 32 8 41 18 35 39 10 92 -43 92
-16 0 -36 -7 -44 -16z m68 -7 c36 -26 -4 -84 -41 -61 -24 15 -27 38 -8 58 20
19 26 20 49 3z"/>
<path d="M1190 645 c0 -30 5 -55 10 -55 6 0 10 17 10 38 l1 37 30 -37 c17 -21
35 -38 40 -38 5 0 9 25 9 55 0 30 -4 55 -10 55 -5 0 -10 -17 -10 -37 l0 -38
-31 38 c-17 20 -35 37 -40 37 -5 0 -9 -25 -9 -55z"/>
<path d="M1420 645 c0 -30 5 -55 10 -55 6 0 10 25 10 55 0 30 -4 55 -10 55 -5
0 -10 -25 -10 -55z"/>
<path d="M1570 645 l0 -55 35 0 c19 0 35 5 35 10 0 6 -11 10 -25 10 -23 0 -25
4 -25 45 0 25 -4 45 -10 45 -5 0 -10 -25 -10 -55z"/>
<path d="M1760 645 l0 -55 40 0 c22 0 40 5 40 10 0 6 -13 10 -30 10 -29 0 -30
2 -30 45 0 25 -4 45 -10 45 -5 0 -10 -25 -10 -55z"/>
<path d="M1961 649 c-21 -48 -21 -84 0 -46 6 9 21 17 34 17 13 0 28 -8 34 -17
5 -10 12 -15 16 -11 10 9 -36 108 -50 108 -7 0 -22 -23 -34 -51z m49 -6 c0 -7
-7 -13 -15 -13 -16 0 -19 9 -9 35 5 13 8 14 15 3 5 -7 9 -19 9 -25z"/>
<path d="M1750 149 c0 -5 5 -7 10 -4 6 3 10 8 10 11 0 2 -4 4 -10 4 -5 0 -10
-5 -10 -11z"/>
<path d="M871 98 c1 -24 3 -35 6 -26 2 9 12 19 21 21 15 4 15 5 0 6 -22 1 -24
21 -3 21 8 0 15 5 15 10 0 6 -9 10 -20 10 -17 0 -20 -6 -19 -42z"/>
<path d="M1012 103 c-2 -39 0 -43 21 -42 16 1 17 3 5 6 -11 3 -18 17 -21 41
l-4 37 -1 -42z"/>
<path d="M1151 126 c-21 -25 -10 -61 18 -61 31 0 50 28 35 53 -15 23 -38 26
-53 8z m43 -15 c9 -14 -4 -41 -19 -41 -18 0 -28 17 -21 35 6 17 32 20 40 6z"/>
<path d="M1311 98 c0 -30 3 -37 8 -24 7 18 8 18 14 3 3 -9 14 -17 24 -17 17 1
17 1 0 11 -14 8 -16 14 -6 25 9 11 9 17 -1 29 -24 29 -40 18 -39 -27z m29 12
c0 -5 -4 -10 -10 -10 -5 0 -10 5 -10 10 0 6 5 10 10 10 6 0 10 -4 10 -10z"/>
<path d="M1457 133 c-4 -3 -7 -21 -7 -40 0 -30 3 -33 28 -32 16 1 20 3 10 6
-10 2 -18 8 -18 13 0 5 8 11 18 13 16 4 16 5 0 6 -22 1 -24 21 -3 21 8 0 15 5
15 10 0 11 -33 14 -43 3z"/>
<path d="M1601 98 c0 -30 3 -37 8 -24 7 18 8 18 14 3 3 -9 14 -17 24 -17 17 1
17 1 0 11 -14 8 -16 14 -6 25 9 11 9 17 -1 29 -24 29 -40 18 -39 -27z m29 12
c0 -5 -4 -10 -10 -10 -5 0 -10 5 -10 10 0 6 5 10 10 10 6 0 10 -4 10 -10z"/>
<path d="M1866 106 c-20 -48 -20 -49 3 -34 15 9 23 9 35 -1 21 -17 20 -4 -3
39 l-19 35 -16 -39z m24 -6 c0 -5 -5 -10 -11 -10 -5 0 -7 5 -4 10 3 6 8 10 11
10 2 0 4 -4 4 -10z"/>
<path d="M1740 95 c0 -19 5 -35 10 -35 6 0 10 16 10 35 0 19 -4 35 -10 35 -5
0 -10 -16 -10 -35z"/>
</g>
</svg>
